{
    "asset" : {
        "generator" : "Khronos glTF Blender I/O v1.7.33",
        "version" : "2.0"
    },
    "scene" : 0,
    "scenes" : [
        {
            "name" : "Scene",
            "nodes" : [
                0,
                6
            ]
        }
    ],
    "nodes" : [
        {
            "mesh" : 0,
            "name" : "centerTorus",
            "rotation" : [
                0,
                0.9395715594291687,
                0,
                0.34235259890556335
            ],
            "scale" : [
                0.2448781579732895,
                0.3539210557937622,
                0.2448781579732895
            ],
            "translation" : [
                -0.002077291253954172,
                0,
                -0.007577565032988787
            ]
        },
        {
            "mesh" : 1,
            "name" : "middleTorus",
            "rotation" : [
                -0.0734688863158226,
                -0.185719832777977,
                -0.19139206409454346,
                0.9609784483909607
            ],
            "scale" : [
                2.8586666584014893,
                6.678882122039795,
                2.8615753650665283
            ],
            "translation" : [
                -0.0021492578089237213,
                0.009190510027110577,
                0.008310152217745781
            ]
        },
        {
            "mesh" : 2,
            "name" : "middleTorus.001",
            "rotation" : [
                0.08852770924568176,
                0.5432522296905518,
                0.17302294075489044,
                0.816763699054718
            ],
            "scale" : [
                3.9394118785858154,
                4.531363010406494,
                3.947465658187866
            ],
            "translation" : [
                -0.07448261231184006,
                0.009190510027110577,
                -0.07769019156694412
            ]
        },
        {
            "mesh" : 3,
            "name" : "windBez",
            "rotation" : [
                -0.005751640535891056,
                0.8811073303222656,
                -0.011442335322499275,
                0.47274288535118103
            ],
            "scale" : [
                18.251619338989258,
                1.9774281978607178,
                5.0980658531188965
            ],
            "translation" : [
                -6.315063953399658,
                0.19247333705425262,
                -0.07961449027061462
            ]
        },
        {
            "mesh" : 4,
            "name" : "windBez.001",
            "rotation" : [
                0.3817461431026459,
                0.22211501002311707,
                -0.8899878859519958,
                0.1133863776922226
            ],
            "scale" : [
                18.251497268676758,
                1.9842593669891357,
                5.080938816070557
            ],
            "translation" : [
                1.3292145729064941,
                1.5164862871170044,
                -6.503148078918457
            ]
        },
        {
            "mesh" : 5,
            "name" : "windBez.002",
            "rotation" : [
                0.1915576159954071,
                0.7742338180541992,
                -0.4549396336078644,
                0.396103173494339
            ],
            "scale" : [
                17.824298858642578,
                7.593817234039307,
                10.677423477172852
            ],
            "translation" : [
                -5.441492080688477,
                4.535193920135498,
                1.4584105014801025
            ]
        },
        {
            "children" : [
                1,
                2,
                3,
                4,
                5
            ],
            "mesh" : 6,
            "name" : "wind_wisp",
            "rotation" : [
                0,
                0.9395715594291687,
                0,
                0.34235259890556335
            ],
            "scale" : [
                0.19661810994148254,
                0.1995214819908142,
                0.19661810994148254
            ],
            "translation" : [
                -0.0034529403783380985,
                -0.0018106562783941627,
                -0.008733570575714111
            ]
        }
    ],
    "materials" : [
        {
            "alphaMode" : "BLEND",
            "doubleSided" : true,
            "emissiveFactor" : [
                1,
                1,
                1
            ],
            "name" : "windTxt",
            "pbrMetallicRoughness" : {}
        },
        {
            "alphaMode" : "BLEND",
            "doubleSided" : true,
            "emissiveFactor" : [
                1,
                1,
                1
            ],
            "name" : "windSphereTxt",
            "pbrMetallicRoughness" : {}
        }
    ],
    "meshes" : [
        {
            "name" : "Torus",
            "primitives" : [
                {
                    "attributes" : {
                        "POSITION" : 0,
                        "NORMAL" : 1,
                        "TEXCOORD_0" : 2
                    },
                    "indices" : 3,
                    "material" : 0
                }
            ]
        },
        {
            "name" : "Torus.003",
            "primitives" : [
                {
                    "attributes" : {
                        "POSITION" : 4,
                        "NORMAL" : 5,
                        "TEXCOORD_0" : 6
                    },
                    "indices" : 7,
                    "material" : 0
                }
            ]
        },
        {
            "name" : "Torus.004",
            "primitives" : [
                {
                    "attributes" : {
                        "POSITION" : 8,
                        "NORMAL" : 9,
                        "TEXCOORD_0" : 10
                    },
                    "indices" : 7,
                    "material" : 0
                }
            ]
        },
        {
            "name" : "BezierCurve",
            "primitives" : [
                {
                    "attributes" : {
                        "POSITION" : 11,
                        "NORMAL" : 12,
                        "TEXCOORD_0" : 13
                    },
                    "indices" : 14,
                    "material" : 0
                }
            ]
        },
        {
            "name" : "BezierCurve.001",
            "primitives" : [
                {
                    "attributes" : {
                        "POSITION" : 15,
                        "NORMAL" : 16,
                        "TEXCOORD_0" : 17
                    },
                    "indices" : 18,
                    "material" : 0
                }
            ]
        },
        {
            "name" : "BezierCurve.002",
            "primitives" : [
                {
                    "attributes" : {
                        "POSITION" : 19,
                        "NORMAL" : 20,
                        "TEXCOORD_0" : 21
                    },
                    "indices" : 14,
                    "material" : 0
                }
            ]
        },
        {
            "name" : "Sphere",
            "primitives" : [
                {
                    "attributes" : {
                        "POSITION" : 22,
                        "NORMAL" : 23,
                        "TEXCOORD_0" : 24
                    },
                    "indices" : 25,
                    "material" : 1
                }
            ]
        }
    ],
    "accessors" : [
        {
            "bufferView" : 0,
            "componentType" : 5126,
            "count" : 2304,
            "max" : [
                1.2500017881393433,
                0.25,
                1.2500007152557373
            ],
            "min" : [
                -1.2499982118606567,
                -0.25,
                -1.2499992847442627
            ],
            "type" : "VEC3"
        },
        {
            "bufferView" : 1,
            "componentType" : 5126,
            "count" : 2304,
            "type" : "VEC3"
        },
        {
            "bufferView" : 2,
            "componentType" : 5126,
            "count" : 2304,
            "type" : "VEC2"
        },
        {
            "bufferView" : 3,
            "componentType" : 5123,
            "count" : 3456,
            "type" : "SCALAR"
        },
        {
            "bufferView" : 4,
            "componentType" : 5126,
            "count" : 1024,
            "max" : [
                1.0499999523162842,
                0.06499998271465302,
                1.049999713897705
            ],
            "min" : [
                -1.0499999523162842,
                -0.0650000125169754,
                -1.0500001907348633
            ],
            "type" : "VEC3"
        },
        {
            "bufferView" : 5,
            "componentType" : 5126,
            "count" : 1024,
            "type" : "VEC3"
        },
        {
            "bufferView" : 6,
            "componentType" : 5126,
            "count" : 1024,
            "type" : "VEC2"
        },
        {
            "bufferView" : 7,
            "componentType" : 5123,
            "count" : 1536,
            "type" : "SCALAR"
        },
        {
            "bufferView" : 8,
            "componentType" : 5126,
            "count" : 1024,
            "max" : [
                1.0499999523162842,
                0.06499998271465302,
                1.049999713897705
            ],
            "min" : [
                -1.0499999523162842,
                -0.0650000125169754,
                -1.0500001907348633
            ],
            "type" : "VEC3"
        },
        {
            "bufferView" : 9,
            "componentType" : 5126,
            "count" : 1024,
            "type" : "VEC3"
        },
        {
            "bufferView" : 10,
            "componentType" : 5126,
            "count" : 1024,
            "type" : "VEC2"
        },
        {
            "bufferView" : 11,
            "componentType" : 5126,
            "count" : 50,
            "max" : [
                1.5858334302902222,
                0.3947637677192688,
                0.1679030954837799
            ],
            "min" : [
                -1.7723356485366821,
                -0.49382346868515015,
                -0.48586538434028625
            ],
            "type" : "VEC3"
        },
        {
            "bufferView" : 12,
            "componentType" : 5126,
            "count" : 50,
            "type" : "VEC3"
        },
        {
            "bufferView" : 13,
            "componentType" : 5126,
            "count" : 50,
            "type" : "VEC2"
        },
        {
            "bufferView" : 14,
            "componentType" : 5123,
            "count" : 144,
            "type" : "SCALAR"
        },
        {
            "bufferView" : 15,
            "componentType" : 5126,
            "count" : 50,
            "max" : [
                1.7252169847488403,
                1.3457999229431152,
                0.1363062858581543
            ],
            "min" : [
                -1.6585406064987183,
                -0.40000003576278687,
                -0.8034117221832275
            ],
            "type" : "VEC3"
        },
        {
            "bufferView" : 16,
            "componentType" : 5126,
            "count" : 50,
            "type" : "VEC3"
        },
        {
            "bufferView" : 17,
            "componentType" : 5126,
            "count" : 50,
            "type" : "VEC2"
        },
        {
            "bufferView" : 18,
            "componentType" : 5123,
            "count" : 144,
            "type" : "SCALAR"
        },
        {
            "bufferView" : 19,
            "componentType" : 5126,
            "count" : 50,
            "max" : [
                1.608899474143982,
                0.9268403053283691,
                0.4931626319885254
            ],
            "min" : [
                -1.6585406064987183,
                -0.40000003576278687,
                -0.07028481364250183
            ],
            "type" : "VEC3"
        },
        {
            "bufferView" : 20,
            "componentType" : 5126,
            "count" : 50,
            "type" : "VEC3"
        },
        {
            "bufferView" : 21,
            "componentType" : 5126,
            "count" : 50,
            "type" : "VEC2"
        },
        {
            "bufferView" : 22,
            "componentType" : 5126,
            "count" : 1984,
            "max" : [
                0.9999997019767761,
                1,
                0.9999994039535522
            ],
            "min" : [
                -0.9999990463256836,
                -1,
                -0.9999987483024597
            ],
            "type" : "VEC3"
        },
        {
            "bufferView" : 23,
            "componentType" : 5126,
            "count" : 1984,
            "type" : "VEC3"
        },
        {
            "bufferView" : 24,
            "componentType" : 5126,
            "count" : 1984,
            "type" : "VEC2"
        },
        {
            "bufferView" : 25,
            "componentType" : 5123,
            "count" : 2880,
            "type" : "SCALAR"
        }
    ],
    "bufferViews" : [
        {
            "buffer" : 0,
            "byteLength" : 27648,
            "byteOffset" : 0
        },
        {
            "buffer" : 0,
            "byteLength" : 27648,
            "byteOffset" : 27648
        },
        {
            "buffer" : 0,
            "byteLength" : 18432,
            "byteOffset" : 55296
        },
        {
            "buffer" : 0,
            "byteLength" : 6912,
            "byteOffset" : 73728
        },
        {
            "buffer" : 0,
            "byteLength" : 12288,
            "byteOffset" : 80640
        },
        {
            "buffer" : 0,
            "byteLength" : 12288,
            "byteOffset" : 92928
        },
        {
            "buffer" : 0,
            "byteLength" : 8192,
            "byteOffset" : 105216
        },
        {
            "buffer" : 0,
            "byteLength" : 3072,
            "byteOffset" : 113408
        },
        {
            "buffer" : 0,
            "byteLength" : 12288,
            "byteOffset" : 116480
        },
        {
            "buffer" : 0,
            "byteLength" : 12288,
            "byteOffset" : 128768
        },
        {
            "buffer" : 0,
            "byteLength" : 8192,
            "byteOffset" : 141056
        },
        {
            "buffer" : 0,
            "byteLength" : 600,
            "byteOffset" : 149248
        },
        {
            "buffer" : 0,
            "byteLength" : 600,
            "byteOffset" : 149848
        },
        {
            "buffer" : 0,
            "byteLength" : 400,
            "byteOffset" : 150448
        },
        {
            "buffer" : 0,
            "byteLength" : 288,
            "byteOffset" : 150848
        },
        {
            "buffer" : 0,
            "byteLength" : 600,
            "byteOffset" : 151136
        },
        {
            "buffer" : 0,
            "byteLength" : 600,
            "byteOffset" : 151736
        },
        {
            "buffer" : 0,
            "byteLength" : 400,
            "byteOffset" : 152336
        },
        {
            "buffer" : 0,
            "byteLength" : 288,
            "byteOffset" : 152736
        },
        {
            "buffer" : 0,
            "byteLength" : 600,
            "byteOffset" : 153024
        },
        {
            "buffer" : 0,
            "byteLength" : 600,
            "byteOffset" : 153624
        },
        {
            "buffer" : 0,
            "byteLength" : 400,
            "byteOffset" : 154224
        },
        {
            "buffer" : 0,
            "byteLength" : 23808,
            "byteOffset" : 154624
        },
        {
            "buffer" : 0,
            "byteLength" : 23808,
            "byteOffset" : 178432
        },
        {
            "buffer" : 0,
            "byteLength" : 15872,
            "byteOffset" : 202240
        },
        {
            "buffer" : 0,
            "byteLength" : 5760,
            "byteOffset" : 218112
        }
    ],
    "buffers" : [
        {
            "byteLength" : 223872,
            "uri" : "data:application/octet-stream;base64,"
        }
    ]
}
